<svg xmlns="http://www.w3.org/2000/svg" viewBox="0 0 240.6 244.07"><defs><style>.cls-1{fill:#9fbdff;}.cls-1,.cls-2,.cls-3,.cls-4{fill:evenodd;}.cls-2{fill:#0d3499;}.cls-3{fill:#fff;}.cls-4{fill:#e77008;}</style></defs><g id="Layer_2" data-name="Layer 2"><g id="OBJECTS"><path class="cls-1" d="M64.5,202.82C40.62,198.24,26,198,16.55,170.65c-5-14.45-27.72-4.7-9.73,12.06,17.09,15.92,30.89,14.44,28.82,22.3s-10.45-5.22-20.89-10-10.5,19.28,16.14,21.68,16.53-4,44.57,2a91.74,91.74,0,0,0,14.94,1.9c4.27.2,2.31-1.42.35-5.59C82,210.25,66.08,204.16,64.5,202.82Z"/><path class="cls-1" d="M107.33,21.43A99.24,99.24,0,0,0,92.44,218.79c-3.44-8.45-8-16-15.34-21.13-11.77-8.11-12-8.11-12-8.11s22.71,7.71,36.06,20.06c8.12-5.92,25.94-11.67,25.12-20.2-.78-8.13-8.56-3.73-13-9.1-1.63-1.94-.65-5.74,1.84-6.67,4.37-1.64,12.91,1.69,16.77,11.72,6.06,15.76,26.08-5.39,16.47-7-5.9-1-15.2-2.25-8.16-9.49,11.53-11.86,3-11.93-9.77-11.83-25.18.2-8.41-28.51-1.69-14.55,1.83,3.8.56,10.13,9.7,10.31,15.81.32,15.39-4,24.31,10.12,2.94,4.66,10.64,5.47,15.83,4.71,22.64-3.27,28-27.93,28-46.94A99.24,99.24,0,0,0,107.33,21.43Z"/><path class="cls-2" d="M178.11,106.88c.42-2,24.23-18.75,8.49-39-7.49-9.65-14.26,8.28-14.86,14.78s-1.2,9.76-5.19,2.88S178.11,106.88,178.11,106.88Z"/><path class="cls-3" d="M82.23,90.59c-23.83,40.95-18.71,59.72-3.45,75.35,8.49,8.71,4.46,20-1.78,18.58-5-1.13-27.27-22.12-28.52-33.05-1.1-9.63-4.15-28.14,3.59-38.45C60.62,101.63,80.2,98.54,82.23,90.59Z"/><path class="cls-2" d="M142.19,48.69c-37.28-21-83.35-17.14-111.25,29s8.18,90.69,23.57,103.93c9.47,8.14,20.41,13.87,27.19,19.11C96,211.74,97.55,218,104.89,230c15.78,25.77,35.47,11.31,31.52-5.47-1.48-6.28,18.52,1.76,17-11.94-.85-7.59-9.81-13.06-18.6-15.14-12.09-2.86-24.8,0-35.8-1.53-8.19-1.15-20.3-10.71-31.72-25.09-23.6-29.71,6.26-84,40.07-67.22S142.19,48.69,142.19,48.69Z"/><path class="cls-2" d="M60,155.75c-6.27-26.38,13.49-58.36,38.09-55A22.62,22.62,0,0,1,101,99.61C88,89.06,49.09,93.93,54,134.49A71.33,71.33,0,0,0,60,155.75Z"/><path class="cls-2" d="M100.45,37.9c21.71-3.59,43.9,9.48,47.55,11.56a67.76,67.76,0,0,1,21.34,19.77c1.25,1.59,2.8,3.52,4.33,5.79,6.73,10,15.26,25.54,18.52,37.86,4.46,16.87,2.63,14.21,4.46,23.53s-12.78,16.65-18.46,18-15.41-.29-30.22-12c-8.12-6.45-14.53-15.89-18.67-23.1-13.9-8.83-24.91-16.79-26.38-18.29C89.42,87.2,53.63,40.28,100.45,37.9Z"/><path class="cls-2" d="M132.27,99.09c-11.55,9.13-14,9.76-25.89,5.4s-24,17.26-16.59,22.15c6.08,4,33.51,3.82,43.34-12.12C135.32,111,131.62,104,132.27,99.09Z"/><path class="cls-3" d="M154.79,132.11c-.68,1.38-2.89,1.63-4.92.56s-3.13-3-2.44-4.42,2.89-1.64,4.93-.57S155.48,130.73,154.79,132.11Z"/><path class="cls-2" d="M154.38,132.94c-.46.92-1.93,1.09-3.29.38s-2.08-2-1.62-2.95,1.93-1.09,3.28-.38S154.84,132,154.38,132.94Z"/><path class="cls-3" d="M76.38,196.92l.09.07c.26.24-.37,15.33-12.12,8-14.79-9.21-39-29.42-43.56-60.35-2.69-18.17,4.15-38.55,12.58-52.88A90.2,90.2,0,0,1,45.85,75.21C57,62,73.33,53.24,93.52,51.05s39.44,3.21,54,17.54C132,56.43,117.45,50.93,97.47,52.41c-40.83,3-67.18,33.5-64.63,74.31,1.85,29.47,18.83,54.69,43.49,70.17Z"/><path class="cls-1" d="M129.57,129.18c-3.92-6.62-5.73-11.12-4.61-19.14.94-6.81,4-13.1,10.23-16.31-2.93,4.51-4.88,6.63-6.1,12.23-1.72,8-.05,13.6,4.41,20.06a2.52,2.52,0,0,1-3.93,3.16Z"/><path class="cls-3" d="M96.15,207.31c10.55,6.61,18.61,17.07,24,28.18,1.15,2.36,1,1.75,1.31,3.46a54.72,54.72,0,0,1-4.65-6.25C110.06,223.26,103.64,216,96.15,207.31Z"/><path class="cls-3" d="M97.57,204.27c12.52,3.52,23.48,14,31.31,24.12,2.07,2.68,1.58,1.86,2.56,3.87-2.29-1.64-4.92-4.5-7.07-6.54A172.45,172.45,0,0,0,97.57,204.27Z"/><path class="cls-3" d="M100.41,200c12.39-1.83,38.18,1.5,46.65,11.56-9.34-5.31-14.59-6.06-25-8.18C114.55,201.86,107.67,201.33,100.41,200Z"/><path class="cls-3" d="M98.58,202.24c11.5-.35,29.38,6.34,38.54,13.18-6.48-2.17-13.57-4.78-20.09-7.1C110.74,206.08,104.65,204.37,98.58,202.24Z"/><path class="cls-2" d="M172.85,144.89c1.76,14.5-.25,41.3-20,41.66-14.16.26-22.8-13.76-30.89-9.37,5.15-4.86,13.18.31,15.57,1.91,24.56,16.43,33.38-11.36,30-32.67a3,3,0,0,1,2.07-3.47A2.6,2.6,0,0,1,172.85,144.89Z"/><path class="cls-2" d="M185.87,134.49c3.46,14.19,14.8,38.56,33.45,31.91,13.33-4.75,14.22-20.45,21.28-16.74-3.43-5.42-7.91,2-9.58,4.35-17.19,24-35.24,1.16-39.61-20a3,3,0,0,0-3.15-2.52A2.59,2.59,0,0,0,185.87,134.49Z"/><path class="cls-1" d="M182.93,89.79l-1.21-1.89c-6.89-11.61-16.53-26.52-27-35.28-.92-.76-6.12-2.93-5.36-3.85C155,42,181.08,76.49,182.93,89.79Z"/><path class="cls-1" d="M89.29,106.25c10.42,6.73,12.39,5,23.19,3.9a8.41,8.41,0,0,1-3.43,1.93c-8.37,3.08-14.42,1.16-21.86-2.89a1.81,1.81,0,1,1,2.1-2.94Z"/><path class="cls-1" d="M85.09,118.06c12.38,3.69,16,2.69,28.1-1.42l-3.74,2.76c-8.14,4.81-16.63,4.14-25.37,2.12a1.8,1.8,0,0,1,1-3.46Z"/><path class="cls-1" d="M177.74,61.38c1.46,5.18,5.39,5.67,4.14,13.57L181,72.62c-2.07-5.38-4.69-6.5-6.37-10.67a1.57,1.57,0,0,1,3.08-.57Z"/><path class="cls-3" d="M113.57,154.31c-5.08-.46-5.31,5.32-.23,5.32S116.58,154.31,113.57,154.31Z"/><path class="cls-2" d="M176.3,150.75c2.57,7.07,5.18,17.77.18,24.54l-1.7,1.69c3.16-10.17,2.49-14.7-2-24.57a1.94,1.94,0,0,1,3.51-1.66Z"/><path class="cls-2" d="M186.57,146.15c1.35,7.4,4.5,17.95,12.23,21.27l2.32.61c-7.86-7.19-9.56-11.44-10.69-22.22a1.94,1.94,0,0,0-3.86.34Z"/><path class="cls-3" d="M191.7,129.72c-12.58-25.12-18.95-36-33.87-57.61C172.31,72.54,192.67,109.82,191.7,129.72Z"/><path class="cls-3" d="M101.64,50.81c-30-5.27-53.34,2.44-67.13,15.82s12.77,8.52,12.77,8.52S61.48,55.27,101.64,50.81Z"/><path class="cls-4" d="M113.58,80.59c-6.49-3.11-15.56-4-23.92-2.68C57.73,83,39.79,116,49.61,146.11a33.11,33.11,0,0,0,4,8.44c1.85,2.6.61,1.32-.32-2.86C41.8,100,84.82,87.92,101.39,92.15c9.17,2.34,13.76,1,15.91-1.34S118.78,83.08,113.58,80.59Z"/><path class="cls-1" d="M10.45,150.82c-3.25-9-13.23-4.79-9.19,3.83S12.84,155.91,10.45,150.82Z"/><path class="cls-1" d="M199.41,84.68C199.06,65,187.48,36.3,159.86,32.56c-9.43-1.28-13.57-6.71-12.33-13.32.78-4.16,3.78-6.33,2.86-10.49a9.78,9.78,0,0,0-5.26-6.58A11.15,11.15,0,0,0,129.43,10C126.19,24.65,142,32,147.28,34.38S189.67,54.46,199.41,84.68Z"/><path class="cls-1" d="M119.84,9c-3.46-2.61-9.85-3.88-12.39,1.9-1.61,3.68.55,8.45,11.43,9.66,5.13.57,7.24.71,8.36-.39S126.05,13.72,119.84,9Z"/><path class="cls-1" d="M121.87.44c-4.69-2-6.7,3.41-1.86,5S124.73,1.37,121.87.44Z"/><path class="cls-2" d="M40.75,97.3c-13.38,32.46-8.18,74.54,20.6,97.05l5.81,4.33A44.06,44.06,0,0,1,55,190.83c-26.47-23-30.37-64-18.19-95.23a2.16,2.16,0,0,1,4,1.7Z"/><path class="cls-2" d="M107.79,57.66c-22.43-3.31-44.22.75-64.89,9.7l-4.13,1.76C57,55.49,86.19,50.8,108.47,53.4a2.16,2.16,0,1,1-.68,4.26Z"/><path class="cls-3" d="M168.92,144.59c.74-.27,5.1,2.09,5.81,5.2C174.65,149.76,163.5,146.53,168.92,144.59Z"/><path class="cls-3" d="M189.08,143.41a6.7,6.7,0,0,1,.13-7.51c.93-1.18,1.71-.54,1.81.34C191.05,136.47,189.24,143,189.08,143.41Z"/><path class="cls-3" d="M172.7,53.25a83.23,83.23,0,0,0-16.45-15.1c-3.94-2.76-6.68-3.67-1.84-3.52,9.33,1.27,18.29,7.08,24.65,13.76,1,1.25,1.93,3.5-.39,5.25A4.65,4.65,0,0,1,172.7,53.25Z"/></g></g></svg>